<?xml version="1.0" standalone="no"?>
<!DOCTYPE svg PUBLIC "-//W3C//DTD SVG 20010904//EN"
 "http://www.w3.org/TR/2001/REC-SVG-20010904/DTD/svg10.dtd">
<svg version="1.0" xmlns="http://www.w3.org/2000/svg"
 width="1092.000000pt" height="1092.000000pt" viewBox="0 0 1092.000000 1092.000000"
 preserveAspectRatio="xMidYMid meet">

<g transform="translate(0.000000,1092.000000) scale(0.100000,-0.100000)"
fill="#000000" stroke="none">
<path d="M5165 10893 c-1093 -65 -2094 -428 -2960 -1073 -365 -271 -744 -641
-1032 -1005 -612 -776 -1003 -1729 -1117 -2720 -52 -449 -45 -947 18 -1395
127 -900 478 -1748 1026 -2485 271 -365 641 -744 1005 -1032 776 -612 1729
-1003 2720 -1117 449 -52 947 -45 1395 18 900 127 1748 478 2485 1026 365 271
744 641 1032 1005 612 776 1003 1729 1117 2720 52 449 45 947 -18 1395 -127
900 -478 1748 -1026 2485 -271 365 -641 744 -1005 1032 -787 620 -1758 1015
-2765 1123 -246 26 -649 37 -875 23z m-1870 -3328 c125 -37 261 -76 455 -130
91 -25 172 -49 180 -52 8 -3 20 -7 25 -8 25 -6 543 -153 735 -210 118 -34 278
-79 355 -100 77 -21 146 -43 153 -48 6 -5 12 -7 12 -3 0 3 12 1 28 -5 15 -6
38 -13 52 -16 13 -2 53 -13 87 -24 l62 -21 68 21 c81 24 236 70 278 81 63 16
296 83 455 130 130 38 565 162 615 174 6 2 17 6 25 9 16 7 116 35 146 42 21 4
349 98 698 199 127 36 238 66 248 66 17 0 18 -34 18 -732 0 -403 0 -784 0
-846 0 -103 2 -113 18 -108 9 2 62 18 117 35 55 17 235 68 400 115 165 46 345
98 400 114 55 17 170 49 255 72 85 24 230 65 321 91 91 27 168 49 172 49 4 0
7 -673 7 -1495 l0 -1495 -422 2 -423 3 -5 946 -5 946 -135 -38 c-74 -21 -211
-60 -305 -87 -93 -28 -217 -62 -275 -78 -58 -15 -108 -30 -113 -34 -4 -3 -8
-377 -10 -831 l-2 -824 -425 0 -425 0 -2 700 -2 700 -23 -3 c-23 -2 -511 -137
-538 -149 -8 -3 -20 -7 -27 -9 -7 -1 -68 -18 -135 -37 -68 -20 -181 -52 -253
-72 -71 -20 -137 -39 -145 -42 -8 -3 -19 -7 -25 -8 -5 -1 -12 -3 -15 -4 -3 -2
-12 -4 -21 -6 -8 -1 -53 -14 -100 -28 -46 -14 -158 -46 -249 -71 -159 -45
-166 -46 -210 -32 -25 8 -106 31 -180 51 -74 20 -167 48 -207 61 -39 13 -82
26 -95 28 -30 7 -274 76 -761 216 -214 61 -391 109 -393 107 -3 -2 -6 -319 -7
-703 l-2 -699 -422 -3 -423 -2 0 830 0 829 -42 11 c-97 25 -408 113 -478 135
-41 13 -111 33 -155 45 -44 12 -99 28 -123 36 -23 8 -45 14 -47 14 -3 0 -5
-427 -5 -950 l0 -950 -425 0 -425 0 0 1495 c0 822 3 1495 6 1495 4 0 75 -20
158 -44 83 -24 228 -65 321 -91 94 -26 260 -73 370 -105 110 -32 304 -88 430
-124 127 -35 268 -76 315 -90 47 -14 88 -26 93 -26 4 0 7 382 7 848 l0 849
153 -43 c83 -23 193 -54 242 -69z"/>
<path d="M3750 6159 l0 -424 113 -32 c61 -18 119 -35 127 -38 8 -2 31 -9 50
-14 70 -19 360 -101 565 -161 116 -34 233 -67 260 -75 125 -34 378 -107 455
-131 106 -33 136 -33 246 1 151 47 344 103 709 205 37 10 460 131 685 196 91
26 166 48 168 49 4 3 3 837 -1 841 -3 4 -318 -83 -547 -151 -85 -25 -198 -57
-250 -71 -52 -14 -133 -36 -180 -50 -47 -14 -92 -27 -101 -29 -9 -2 -32 -8
-50 -13 -19 -6 -152 -44 -296 -85 l-261 -75 -179 50 c-238 67 -255 71 -353
101 -47 14 -161 46 -255 72 -93 26 -224 63 -290 82 -66 19 -223 64 -350 100
-126 36 -238 67 -247 70 -17 5 -18 -20 -18 -418z"/>
</g>
</svg>
